HIERARCHY
ROOT hip
{
  OFFSET 0 0 0
  CHANNELS 6 Xposition Yposition Zposition Zrotation Yrotation Xrotation
  JOINT abdomen
  {
    OFFSET 0 20.6881 -0.73152
    CHANNELS 3 Zrotation Xrotation Yrotation
    JOINT chest
    {
      OFFSET 0 11.7043 -0.48768
      CHANNELS 3 Zrotation Xrotation Yrotation
      JOINT neck
      {
        OFFSET 0 22.1894 -2.19456
        CHANNELS 3 Zrotation Xrotation Yrotation
        JOINT head
        {
          OFFSET -0.24384 7.07133 1.2192
          CHANNELS 3 Zrotation Xrotation Yrotation
          JOINT leftEye
          {
            OFFSET 4.14528 8.04674 8.04672
            CHANNELS 3 Zrotation Xrotation Yrotation
            End Site
            {
              OFFSET 1 0 0
            }
          }
          JOINT rightEye
          {
            OFFSET -3.6576 8.04674 8.04672
            CHANNELS 3 Zrotation Xrotation Yrotation
            End Site
            {
              OFFSET 1 0 0
            }
          }
        }
      }
      JOINT rCollar
      {
        OFFSET -2.68224 19.2634 -4.8768
        CHANNELS 3 Zrotation Xrotation Yrotation
        JOINT rShldr
        {
          OFFSET -8.77824 -1.95073 1.46304
          CHANNELS 3 Zrotation Xrotation Yrotation
          JOINT rForeArm
          {
            OFFSET -28.1742 -1.7115 0.48768
            CHANNELS 3 Zrotation Xrotation Yrotation
            JOINT rHand
            {
              OFFSET -22.5879 0.773209 7.07136
              CHANNELS 3 Zrotation Xrotation Yrotation
              JOINT rThumb1
              {
                OFFSET -1.2192 -0.487915 3.41376
                CHANNELS 3 Zrotation Xrotation Yrotation
                JOINT rThumb2
                {
                  OFFSET -3.37035 -0.52449 3.41376
                  CHANNELS 3 Zrotation Xrotation Yrotation
                  End Site
                  {
                    OFFSET -1.78271 -1.18214 1.43049
                  }
                }
              }
              JOINT rIndex1
              {
                OFFSET -7.75947 0.938293 5.60832
                CHANNELS 3 Zrotation Xrotation Yrotation
                JOINT rIndex2
                {
                  OFFSET -2.54057 -0.884171 1.56538
                  CHANNELS 3 Zrotation Xrotation Yrotation
                  End Site
                  {
                    OFFSET -1.62519 -0.234802 1.16502
                  }
                }
              }
              JOINT rMid1
              {
                OFFSET -8.24714 1.18213 3.41376
                CHANNELS 3 Zrotation Xrotation Yrotation
                JOINT rMid2
                {
                  OFFSET -3.10165 -0.590103 1.0647
                  CHANNELS 3 Zrotation Xrotation Yrotation
                  End Site
                  {
                    OFFSET -2.48547 -0.328903 0.83742
                  }
                }
              }
              JOINT rRing1
              {
                OFFSET -8.82822 0.546677 1.51678
                CHANNELS 3 Zrotation Xrotation Yrotation
                JOINT rRing2
                {
                  OFFSET -2.60934 -0.819778 -0.0198488
                  CHANNELS 3 Zrotation Xrotation Yrotation
                  End Site
                  {
                    OFFSET -2.33842 -0.294052 0.168128
                  }
                }
              }
              JOINT rPinky1
              {
                OFFSET -8.27202 -0.0477905 -0.4584
                CHANNELS 3 Zrotation Xrotation Yrotation
                JOINT rPinky2
                {
                  OFFSET -1.82734 -0.647385 -0.700984
                  CHANNELS 3 Zrotation Xrotation Yrotation
                  End Site
                  {
                    OFFSET -1.69225 -0.51767 -0.607171
                  }
                }
              }
            }
          }
        }
      }
      JOINT lCollar
      {
        OFFSET 2.68224 19.2634 -4.8768
        CHANNELS 3 Zrotation Xrotation Yrotation
        JOINT lShldr
        {
          OFFSET 8.77824 -1.95073 1.46304
          CHANNELS 3 Zrotation Xrotation Yrotation
          JOINT lForeArm
          {
            OFFSET 28.1742 -1.7115 0.48768
            CHANNELS 3 Zrotation Xrotation Yrotation
            JOINT lHand
            {
              OFFSET 22.5879 0.773209 7.07136
              CHANNELS 3 Zrotation Xrotation Yrotation
              JOINT lThumb1
              {
                OFFSET 1.2192 -0.487915 3.41376
                CHANNELS 3 Zrotation Xrotation Yrotation
                JOINT lThumb2
                {
                  OFFSET 3.37035 -0.52449 3.41376
                  CHANNELS 3 Zrotation Xrotation Yrotation
                  End Site
                  {
                    OFFSET 1.78271 -1.18214 1.43049
                  }
                }
              }
              JOINT lIndex1
              {
                OFFSET 7.75947 0.938293 5.60832
                CHANNELS 3 Zrotation Xrotation Yrotation
                JOINT lIndex2
                {
                  OFFSET 2.54057 -0.884171 1.56538
                  CHANNELS 3 Zrotation Xrotation Yrotation
                  End Site
                  {
                    OFFSET 1.62519 -0.234802 1.16502
                  }
                }
              }
              JOINT lMid1
              {
                OFFSET 8.24714 1.18213 3.41376
                CHANNELS 3 Zrotation Xrotation Yrotation
                JOINT lMid2
                {
                  OFFSET 3.10165 -0.590103 1.0647
                  CHANNELS 3 Zrotation Xrotation Yrotation
                  End Site
                  {
                    OFFSET 2.48547 -0.328903 0.83742
                  }
                }
              }
              JOINT lRing1
              {
                OFFSET 8.82822 0.546677 1.51678
                CHANNELS 3 Zrotation Xrotation Yrotation
                JOINT lRing2
                {
                  OFFSET 2.60934 -0.819778 -0.0198488
                  CHANNELS 3 Zrotation Xrotation Yrotation
                  End Site
                  {
                    OFFSET 2.33842 -0.294052 0.168128
                  }
                }
              }
              JOINT lPinky1
              {
                OFFSET 8.27202 -0.0477905 -0.4584
                CHANNELS 3 Zrotation Xrotation Yrotation
                JOINT lPinky2
                {
                  OFFSET 1.82734 -0.647385 -0.700984
                  CHANNELS 3 Zrotation Xrotation Yrotation
                  End Site
                  {
                    OFFSET 1.69225 -0.51767 -0.607171
                  }
                }
              }
            }
          }
        }
      }
    }
  }
  JOINT rButtock
  {
    OFFSET -8.77824 4.35084 1.2192
    CHANNELS 3 Zrotation Xrotation Yrotation
    JOINT rThigh
    {
      OFFSET 0 -1.70687 -2.19456
      CHANNELS 3 Zrotation Xrotation Yrotation
      JOINT rShin
      {
        OFFSET 0 -36.8199 0.73152
        CHANNELS 3 Zrotation Xrotation Yrotation
        JOINT rFoot
        {
          OFFSET 0.73152 -45.1104 -5.12064
          CHANNELS 3 Zrotation Xrotation Yrotation
          End Site
          {
            OFFSET -1.1221 -3.69964 12.103
          }
        }
      }
    }
  }
  JOINT lButtock
  {
    OFFSET 8.77824 4.35084 1.2192
    CHANNELS 3 Zrotation Xrotation Yrotation
    JOINT lThigh
    {
      OFFSET 0 -1.70687 -2.19456
      CHANNELS 3 Zrotation Xrotation Yrotation
      JOINT lShin
      {
        OFFSET 0 -36.8199 0.73152
        CHANNELS 3 Zrotation Xrotation Yrotation
        JOINT lFoot
        {
          OFFSET -0.73152 -45.1104 -5.12064
          CHANNELS 3 Zrotation Xrotation Yrotation
          End Site
          {
            OFFSET 1.1221 -3.69964 12.103
          }
        }
      }
    }
  }
}
MOTION
Frames:	4
Frame Time:	0.03333
0.18097665160894394 60.48173904418945 -0.06922027096152306 -6.991624959914233 5.864042690215169 2.3192895569773833 -2.5736991625215486 15.287044239924692 4.161484424013852 2.6989091231691646 -10.307325778344937 1.3355565140057817 -4.922793103715929 15.327455054149072 -2.9915669342917552 8.675304156362811 -24.959558576430304 -4.582878494386489 0.05373029675571355 -0.03159213287139484 -0.026367344981239205 -0.22139631307773205 -0.06589969282469287 0.019953477185479886 0.0970495175864765 -0.061474077088068395 -0.009378870256739042 43.70336497039303 27.76902028773165 14.956060102935043 -24.27892339544936 -30.192537037339545 63.803570093892134 -4.932728040750535 -9.99761511929894 -5.732664001529973 0.13212712800784057 -0.006423472749279648 0.08154069262188984 0.044525576312489996 -0.07481023488592986 0.00357005450180104 -0.07649032801962076 0.06645507258157952 0.13250460268118955 7.739695452344357 5.658440335819445 0.4799978405032872 0.06096776263541476 -0.035925781178062145 0.014463966104133369 2.985352742807513 1.068818950618272 0.0857048001587101 0.0562063737319754 0.06734662571167775 0.07915559589980668 10.14489790346651 0.7207507496062767 -0.00660479292740233 -0.041199274186693786 0.11580222883956963 0.043058473023112415 2.365245417590756 -0.6951641139234684 -0.11687259418770467 0.05771146994861118 0.045475559576503566 -0.05011651303496856 -51.87813493513074 30.160298544457085 -21.84737263583024 23.39396310544749 -28.46800647946512 -60.56020695518739 5.606427591516152 -14.244238278203824 5.175096876561615 -0.07637304086496695 0.06857707361848497 0.012737022141604402 -0.01713513035856371 0.08788551147400857 0.07337896340926839 -0.029625198472989837 0.04855445410787193 0.04277539369852712 -7.890623849981421 5.538405737571995 -0.38270515751018763 -0.04025395999730816 -0.023004770815690526 -0.024382307913491025 -2.931200655190125 0.9132578704549407 -0.08850572466715745 0.060404325389741595 -0.04504691184523238 0.021701031777437894 -10.357080291353896 0.7159472056290537 0.1308108224887322 -0.05448948829021633 0.05369451830385032 -0.07936637126872505 -2.2042627680520215 -0.7790677051526389 0.4115916816966112 -0.05673112435930278 0.01036267763137872 -0.01493231430995526 -29.46296013586088 -35.24794594775409 -28.39508908743336 -6.496498570564485 60.2509838008934 7.446303822772813 -4.98683039605303 -10.081936365923687 -9.676221421677637 -0.0031125919099688577 0.07872944278840813 -0.08917783128974258 33.709015535291 -33.06996596107169 30.279724402094757 6.67798694209548 61.14680409167559 -8.105618568259558 5.246033086847252 -10.02279973431607 12.771115884620167
-0.1439899206161499 64.49246406555176 -0.11500930413603783 -4.041300842265131 4.23308316264898 5.0728224777034905 -2.7461996454350404 14.22701766375893 2.9959811574862876 2.8819669441053803 -9.278426935547863 0.8852931550022044 -5.1539348160788 15.63292672704143 -4.747213699590643 9.282744468876958 -25.574490752690306 -6.7718290455364 0.013153423557137172 -0.08613925088273315 0.0043523913062451765 0.08730497207498393 0.01806307559033341 0.0016689540556499712 -0.05301987704075289 0.08721759367837537 0.03306835419651012 53.4116729132441 30.715193357912675 15.32926846937371 -23.829018834820623 -28.554900146086023 65.81510861578508 -3.8523120692518167 -9.510104390873757 -4.036132523497547 -0.13487403799294928 0.08723827100887052 -0.22222257920431848 -0.026196230066231875 0.056988323670236075 0.05994595566341027 0.02361196396073408 -0.0463152993184449 -0.09458648733874642 7.855374951222277 5.432551038928314 0.4620392454629138 -0.0634125434714562 -0.03976712225595963 0.04064023921138411 2.864921566701379 0.8610426750757799 0.030617430192279638 -0.002189182350694868 -0.08618770253715793 -0.10756480725712268 10.507004651182967 0.7236633450396112 0.05561764344203203 0.13887217993706616 -0.12944905352296088 -0.10036514754169455 2.142749017169829 -0.9475408310550562 -0.32847921847239864 -0.06650042930653664 -0.04315542969281486 -0.06643255430165965 -63.23154858109273 33.53326110756824 -25.569777922163 22.728875142564792 -26.45746004254912 -62.25793926585327 5.10679669240878 -11.38113909135037 3.4210379168013443 -0.01606983429145328 -0.16387704892123328 -0.04713748333978519 0.14526942582715002 -0.037069064131672366 -0.011896375265163928 0.05164295359276063 -0.01901116454406936 -0.0038647131314636213 -7.639668185723166 5.474230133904201 -0.5868191176362305 0.10822936331902376 -0.11174899181484307 -0.13940045238068435 -3.0208646038497022 0.9874343651715138 -0.18440387513081077 -0.09214581528837756 0.03149261488075364 0.06736452827782259 -10.272082002227672 0.7302046919129264 -0.24893680974998708 0.22371201401063084 -0.03765739421521905 0.06696776365615362 -2.1898820181979715 -0.7651491670063281 0.03374444287274222 -0.04336876638267198 0.07212114138492823 0.018770720540943753 -32.57630379352526 -36.21652482866984 -27.365743721019292 -4.425409763732315 63.65635219652168 5.9552620010148045 -4.563435080253579 -9.648017863047361 -10.588489661754865 0.12072065873306638 0.06386668435019593 0.17756336063576367 36.81312819229211 -33.407927136298504 29.339231259046098 3.428446751060104 63.81055054722388 -4.593094322950713 5.243470058361204 -10.021661654045616 15.6127076595509
0.31858906149864197 60.05455255508423 -0.417278241366148 -16.906306214763585 48.439394235217776 -17.16810565810288 -7.0674972625356745 15.201841045123366 0.04632122237311577 5.402767145278827 -10.953449720997096 0.6391826561864274 -9.570519121629811 20.321137837486916 -15.291956853485223 14.987069161766902 -28.84026886470374 -27.570171282877773 0.05439837463390542 0.0655329970436278 0.16639083868027565 -0.05738981072738589 -0.09382908339281548 -0.5185789644428975 0.46366419015514215 0.1646759142498603 0.03986129749120515 41.962233637740894 -0.08502091412784935 34.33224297629799 -24.42902704774415 -26.426814691290566 60.28559919960703 1.9734032278792368 23.671403681986117 6.385026468215292 -0.08973619925439112 -0.06729507912778532 -0.03609138658500851 -0.07852444373181519 -0.12480812674492234 -0.029258876217895014 0.3868580726081141 0.12105763251907131 0.3943720277470686 8.483456949181848 5.889512465630146 0.5983235040760592 0.15284896145430724 0.3007178612300289 0.3388203649996359 3.3359700451229513 0.912336755412341 -0.11619671228477753 0.1705194078890707 0.13944204716551267 -0.21155603819615354 11.19719441303911 0.6992558774839821 0.4110843800681791 0.18614378578059218 0.39908709943019877 -0.03742602155708487 1.8784638118594712 -0.7395360109796332 -0.35829955758440984 -0.29485531776633656 0.3190167917901393 0.328943404531695 -84.35739198583387 70.08112182796998 14.260719524671066 30.426153412616078 -45.11268571316595 -93.62130050052723 19.80813086666372 -70.71907515682751 29.109299770826787 -0.24563468009055037 0.5129657762447636 -0.055021015745860845 -0.07183064490179113 -0.1189282410040405 -0.18833574289563737 0.06001868650590033 0.039127672475343635 -0.002194625157689722 -8.616971779529964 6.15739291176487 -0.4909037316170935 0.18329965232151657 0.04934528862813892 0.03054180452352026 -3.283330844406721 1.1390818536621334 -0.09405205171661937 0.47633968723336356 -0.15413442440044478 0.6163028031273542 -10.95810449491646 0.5724377808127984 0.4913057522827722 0.03240343127874541 0.04543794017521561 0.05951506677631767 -2.2363328540827587 -1.2516917161166627 0.5884340304881154 -0.014943866934606101 0.028881561627104698 -0.6783828193804232 -57.67954735197783 -53.542382243390634 -53.617504078977014 -1.97920782145669 69.86354615195923 0.8942531358936446 1.3565740732989686 -0.8967773710396404 6.803662422823714 -0.36397656536260115 -0.10889134471977288 -0.5709996524665405 28.580979515884422 -21.707480116344623 21.62798695968943 12.171449181155143 68.3585412891036 -13.815894917237522 9.321376872596195 -22.051818980708937 25.173058337053856
1.7655469477176666 54.671794176101685 0.34738341346383095 -14.161963527009144 56.518398117602736 -6.3811725339761125 -3.147477314598109 13.005862656204336 -3.8858956825139463 7.223291316182726 -10.362745933270421 -0.4537782383834892 -9.422985328010244 21.711842899676967 -16.800819065674617 16.91673762117349 -28.671440248799364 -30.18253422530006 0.073021952623003 0.574415707546899 -0.6880749111735242 0.08187966743987816 -0.480627391845692 -0.4628875229413177 -0.06750830909593665 0.3258142974377565 0.5205740733716289 56.35993089866927 -2.5710981411082434 20.36624440676568 -27.14116539356198 -31.16454125812406 68.37845129053419 -1.0585975725253478 20.540603768350476 0.60961103200974 0.017221041331717774 0.10574578914293077 -0.7824434194282119 0.2638275826359669 -0.4440701650149474 1.0258293130953886 0.30300149229034035 -0.5677816728721125 -0.17499979854118747 7.428442024319583 5.677234881981204 -0.011129046200595308 -0.24288366131976905 0.05227149107896047 0.1331294315881135 3.3841709035391427 1.3484626900510497 -0.10550650573835554 0.10781362891415214 -0.2667747025411216 0.5817588012348973 11.075235408993008 1.0315157657445415 -0.7552850398235075 0.10012811863315396 -0.30968120385520126 0.2699153088988581 2.240942804885694 -1.161282423063908 -0.4780743418391352 0.004357127081939228 -0.2923895127542562 -0.3176556631546027 -79.28178279094902 78.53753122803857 3.692216277088126 28.500152764793786 -43.98987774569673 -88.21101203631174 33.45993219663898 -77.04199983756176 40.93912594158634 0.3669967896362161 0.19520499220996615 -0.6712419633248806 0.45203515276296075 -0.4063852899604896 0.46740233134354897 0.37268991239198046 -0.4144263969651516 -0.09984701366012562 -8.206368981159123 6.39834021445494 -1.04885366734409 0.3098090564587274 -0.12550456591642561 -0.06239711312137215 -3.034600968044244 0.8099816749446456 -0.07602467453686985 0.404529746342494 -0.5054251406793637 -0.704055579479797 -11.47238358847257 0.8066991820790727 0.23657117914450213 -0.23260075816346196 0.5748804805755772 -0.06566992099214541 -2.4871566103126677 -1.1327367146448974 0.08915371218423597 -0.8647291095977356 0.03306195756426985 -0.0538318424587646 -51.9228555987214 -47.46645427851697 -53.210134521404534 1.1372930911515307 65.25527899065415 -1.1030936936470421 0.7135659775688051 0.44136383595846207 4.605033920506719 -0.45012872957173383 0.30618644151682906 -0.034607394585691016 39.680233285093784 -30.839881876305842 36.169481900761376 6.972990069424323 82.33989070879551 -11.196735936591073 9.240509994144183 -23.19959641223644 21.205713929347976
